<svg width="200" height="90" viewBox="0 0 200 90" fill="none" xmlns="http://www.w3.org/2000/svg">
    <path d="M46 16V9.20001C46 7.00001 47.3 5.60001 49.7 5.60001V0.200012C43.8 0.200012 40.3 3.90001 40.3 10V16.8C40.3 19 39.2 20.2 37.2 20.3V25.9C39.2 26 40.3 27.3 40.3 29.4V36.3C40.3 42.4 43.8 46.1 49.7 46.1V40.6C47.3 40.6 46 39.2 46 37V30.1C46 27.1 44.9 24.7 43 23.1C44.9 21.4 46 19 46 16Z"
          fill="#F58220"/>
    <path d="M184 34.1L185.4 27.8C185.9 25.5 186.4 21.7 186.7 19.4H186.8C187.1 21.7 187.7 25.4 188.2 27.8L189.6 34.1H184ZM192.1 46H198.3L190 11.9H183.6L175.2 46H181.4L182.8 39.8H190.8L192.1 46ZM153.6 11.9C153 26.1 152.6 32.7 152 36.2C151.3 40.2 150.2 41.2 148.1 41.2V46.6C153.3 46.6 156.6 45 157.7 37.7C158.3 33.7 158.8 27.1 159.3 17.6H165.6V46H171.6V11.9H153.6ZM143.6 11.9L139.2 27.2L134.3 11.9H128L136.5 36.4C135.4 40.2 134.3 41.2 131.7 41.2H130.2V46.6H131.5C137.2 46.6 139.7 45 141.8 38.3L149.9 12H143.6V11.9ZM118.5 11.9L113 25.2C112.3 27 111 30.1 110.6 31.5H110.4C110 30.1 108.8 27 108.1 25.2L102.5 11.8H96.5V46H102.4V35.3C102.3 31.3 102.1 27.4 101.9 23.5L102.1 23.4C103.1 26.2 104.2 29.3 105.3 32.4L107.6 38.4H113.6L115.9 32.4C117 29.3 118.1 26.3 119.1 23.4L119.3 23.5C119.1 27.4 119 31.3 118.8 35.3V46H124.7V11.9H118.5ZM81.4 28.9H78V17.6H81.4C84.6 17.6 86.2 19.5 86.2 23.3C86.2 27 84.6 28.9 81.4 28.9ZM81.5 11.9H72V46H78V34.6H81.5C88.4 34.6 92.4 30.5 92.4 23.3C92.4 16.1 88.3 11.9 81.5 11.9ZM19.8 39.6V18.3H20.7C23.9 18.3 26.3 20.3 26.3 25.5V32.8C26.3 37.7 24 39.7 20.7 39.7H19.8V39.6ZM12.9 39.6C9.70002 39.6 7.40002 37.6 7.40002 32.7V25.4C7.40002 20.3 9.70002 18.2 12.9 18.2H13.9V39.6H12.9ZM13.9 49.2H19.9V45.3H20.6C27.3 45.3 32.4 40.8 32.4 32.7V25.4C32.4 17.2 27.3 12.5 20.6 12.5H19.9V8.90002H13.9V12.5H13.2C6.50002 12.5 1.40002 17.2 1.40002 25.4V32.7C1.40002 40.8 6.50002 45.3 13.2 45.3H13.9V49.2Z"
          fill="#231F20"/>
    <path d="M75.8 62.7C75.8 63.6 75.5 64 74.8 64C74.2 64 73.8 63.5 73.8 62.7V61C73.8 60.1 74.2 59.7 74.8 59.7C75.4 59.7 75.8 60.1 75.8 61.1V62.7ZM74.9 58.5C74.3 58.5 73.8 58.8 73.5 59.2L73.4 58.6H72.6V67.1H73.7V64.6C74 64.9 74.5 65.1 74.9 65.1C76.1 65.1 76.9 64.2 76.9 62.7V61C76.9 59.4 76.1 58.5 74.9 58.5Z"
          fill="#414142"/>
    <path d="M80.2 59.6C80.9 59.6 81.2 60 81.2 60.8V61.3H79.2V60.8C79.2 59.9 79.6 59.6 80.2 59.6ZM81.3 63C81.2 63.7 80.9 64 80.2 64C79.6 64 79.2 63.6 79.2 62.7V62.2H82.4V60.8C82.4 59.3 81.6 58.5 80.2 58.5C78.9 58.5 78 59.3 78 60.8V62.7C78 64.2 78.8 65.1 80.1 65.1C81.5 65.1 82.3 64.3 82.4 63H81.3Z"
          fill="#414142"/>
    <path d="M86.9 64.9H88.2L85.9 61.3L87.9 58.6H86.5L85.5 60.1L84.7 61.3V58.6H83.6V64.9H84.7V62.7L85.2 62.2L86.9 64.9Z"
          fill="#414142"/>
    <path d="M88.4 65C89.6 65 90.2 64.2 90.4 62.4C90.5 61.7 90.5 60.4 90.6 59.7H92V64.9H93.1V58.6H89.4C89.4 59.8 89.3 61.3 89.2 62.2C89.1 63.2 89 63.9 88.3 63.9V65H88.4Z"
          fill="#414142"/>
    <path d="M97.3 63C97.3 63.6 96.9 64 96.3 64C95.7 64 95.3 63.7 95.3 63.1C95.3 62.5 95.7 62.2 96.4 62.2H97.3V63ZM96.5 58.5C95.2 58.5 94.4 59.2 94.4 60.5H95.6C95.7 59.9 96 59.7 96.6 59.7C97.2 59.7 97.5 60.1 97.5 60.9V61.3H96.6C95.2 61.3 94.3 62 94.3 63.2C94.3 64.4 95.1 65.2 96.2 65.2C96.9 65.2 97.3 64.9 97.6 64.5L97.7 65.1H98.6V60.9C98.5 59.3 97.8 58.5 96.5 58.5Z"
          fill="#414142"/>
    <path d="M104 58.6L103 60.9C102.8 61.3 102.7 61.8 102.5 62.2C102.4 61.7 102.2 61.3 102 60.9L101 58.6H99.8V64.9H100.9V62.4C100.9 61.7 100.9 61.1 100.8 60.5H100.9C101.1 61.1 101.2 61.6 101.4 62.1L101.9 63.3H103L103.5 62.1C103.7 61.6 103.8 61.1 104 60.5H104.1C104.1 61.1 104 61.7 104 62.4V64.9H105.1V58.6H104Z"
          fill="#414142"/>
    <path d="M109.5 58.6V61.2H107.7V58.6H106.5V64.9H107.7V62.2H109.5V64.9H110.6V58.6H109.5Z" fill="#414142"/>
    <path d="M114.1 63.9C113.5 63.9 113.1 63.5 113.1 62.6V60.8C113.1 59.9 113.5 59.5 114.1 59.5C114.8 59.5 115.2 59.9 115.2 60.8V62.6C115.1 63.6 114.7 63.9 114.1 63.9ZM114.1 65.1C115.5 65.1 116.3 64.3 116.3 62.7V60.9C116.3 59.4 115.5 58.5 114.1 58.5C112.7 58.5 111.9 59.3 111.9 60.9V62.7C111.9 64.2 112.7 65.1 114.1 65.1Z"
          fill="#414142"/>
    <path d="M120.2 61.3H117.3V62.3H120.2V61.3Z" fill="#414142"/>
    <path d="M76.7 71H72.6V77.3H73.7V72.1H75.5V77.3H76.7V71Z" fill="#414142"/>
    <path d="M81.2 75C81.2 75.9 80.9 76.3 80.2 76.3C79.6 76.3 79.2 75.8 79.2 75V73.3C79.2 72.4 79.6 72 80.2 72C80.8 72 81.2 72.4 81.2 73.4V75ZM80.4 70.9C79.8 70.9 79.3 71.2 79 71.6L78.9 71H78V79.5H79.1V77C79.4 77.3 79.9 77.5 80.3 77.5C81.5 77.5 82.3 76.6 82.3 75.1V73.4C82.4 71.8 81.6 70.9 80.4 70.9Z"
          fill="#414142"/>
    <path d="M85.7 76.3C85.1 76.3 84.7 75.9 84.7 75V73.2C84.7 72.3 85.1 71.9 85.7 71.9C86.4 71.9 86.8 72.3 86.8 73.2V75C86.8 75.9 86.4 76.3 85.7 76.3ZM85.7 77.4C87.1 77.4 87.9 76.6 87.9 75V73.2C87.9 71.7 87.1 70.8 85.7 70.8C84.3 70.8 83.5 71.6 83.5 73.2V75C83.5 76.6 84.3 77.4 85.7 77.4Z"
          fill="#414142"/>
    <path d="M89.2 77.3H90.4L91.6 74.8C91.9 74.3 92.2 73.1 92.3 72.9C92.3 73.5 92.2 74.3 92.2 74.9V77.3H93.3V71H92.1L91 73.6C90.8 74.1 90.4 75.1 90.3 75.4C90.3 74.7 90.3 74.2 90.3 73.7V71H89.2V77.3Z"
          fill="#414142"/>
    <path d="M97.8 74C98.2 73.8 98.5 73.4 98.5 72.7C98.5 71.6 97.7 70.9 96.4 70.9C95.1 70.9 94.4 71.6 94.3 72.9H95.4C95.4 72.2 95.8 71.9 96.4 71.9C97 71.9 97.3 72.2 97.3 72.7C97.3 73.3 97 73.5 96.4 73.5H95.6V74.4H96.4C97.1 74.4 97.5 74.7 97.5 75.3C97.5 75.9 97.1 76.3 96.4 76.3C95.7 76.3 95.3 75.9 95.3 75.4H94.2C94.3 76.6 95.1 77.4 96.5 77.4C97.8 77.4 98.7 76.6 98.7 75.4C98.8 74.7 98.3 74.2 97.8 74Z"
          fill="#414142"/>
    <path d="M101.8 76.3H100.9V74.5H101.8C102.5 74.5 102.8 74.8 102.8 75.4C102.8 76 102.5 76.3 101.8 76.3ZM100.9 72H101.6C102.2 72 102.5 72.3 102.5 72.8C102.5 73.3 102.2 73.6 101.6 73.6H100.9V72ZM102.9 74C103.3 73.7 103.6 73.2 103.6 72.8C103.6 71.7 102.9 71.1 101.6 71.1H99.7V77.4H101.7C103.2 77.4 103.9 76.7 103.9 75.6C104 74.9 103.6 74.2 102.9 74Z"
          fill="#414142"/>
    <path d="M107 76.3C106.4 76.3 106 75.9 106 75V73.2C106 72.3 106.4 71.9 107 71.9C107.7 71.9 108.1 72.3 108.1 73.2V75C108 75.9 107.6 76.3 107 76.3ZM107 77.4C108.4 77.4 109.2 76.6 109.2 75V73.2C109.2 71.7 108.4 70.8 107 70.8C105.6 70.8 104.8 71.6 104.8 73.2V75C104.8 76.6 105.6 77.4 107 77.4Z"
          fill="#414142"/>
    <path d="M111.4 76.2C111.6 75.7 111.7 75.1 111.8 74.3C111.9 73.6 111.9 72.8 111.9 72.1H113.3V76.3H111.4V76.2ZM109.6 78.7H110.7V77.3H114V78.7H115.1V76.2H114.4V71H110.7C110.7 72 110.6 73 110.6 74C110.5 74.9 110.4 75.7 110 76.2H109.5V78.7H109.6Z"
          fill="#414142"/>
    <path d="M118 77.4C119.3 77.4 120.2 76.6 120.2 75.1H119C119 75.9 118.6 76.3 118 76.3C117.4 76.3 117 75.9 117 75.1V73.1C117 72.3 117.4 71.9 118 71.9C118.6 71.9 119 72.3 119 73.1H120.2C120.2 71.6 119.4 70.8 118 70.8C116.7 70.8 115.9 71.6 115.9 73.1V75.1C115.9 76.6 116.7 77.4 118 77.4Z"
          fill="#414142"/>
    <path d="M124.7 71H120.7V72.1H122.1V77.3H123.3V72.1H124.7V71Z" fill="#414142"/>
    <path d="M127.5 76.3H126.6V74.5H127.5C128.2 74.5 128.5 74.8 128.5 75.4C128.5 76 128.2 76.3 127.5 76.3ZM126.6 72H127.3C127.9 72 128.2 72.3 128.2 72.8C128.2 73.3 127.9 73.6 127.3 73.6H126.6V72ZM128.7 74C129.1 73.7 129.4 73.2 129.4 72.8C129.4 71.7 128.7 71.1 127.4 71.1H125.5V77.4H127.5C129 77.4 129.7 76.7 129.7 75.6C129.7 74.9 129.4 74.2 128.7 74Z"
          fill="#414142"/>
    <path d="M132.7 71.9C133.4 71.9 133.7 72.3 133.7 73.1V73.6H131.7V73.1C131.7 72.3 132 71.9 132.7 71.9ZM133.8 75.3C133.7 76 133.4 76.3 132.7 76.3C132.1 76.3 131.7 75.9 131.7 75V74.5H134.9V73.1C134.9 71.6 134.1 70.8 132.7 70.8C131.4 70.8 130.5 71.6 130.5 73.1V75C130.5 76.5 131.3 77.4 132.6 77.4C134 77.4 134.8 76.6 134.9 75.3H133.8Z"
          fill="#414142"/>
    <path d="M139 71V73.5H137.2V71H136.1V77.3H137.2V74.6H139V77.3H140.2V71H139Z" fill="#414142"/>
    <path d="M144.5 71V73.5H142.7V71H141.5V77.3H142.7V74.6H144.5V77.3H145.6V71H144.5Z" fill="#414142"/>
    <path d="M149.9 75.4C149.9 76 149.5 76.4 148.9 76.4C148.3 76.4 147.9 76.1 147.9 75.5C147.9 74.9 148.3 74.6 149 74.6H149.9V75.4ZM149 70.8C147.7 70.8 146.9 71.5 146.9 72.7H148.1C148.2 72.1 148.5 71.9 149.1 71.9C149.7 71.9 150 72.3 150 73.1V73.5H149C147.6 73.5 146.7 74.2 146.7 75.4C146.7 76.6 147.5 77.4 148.6 77.4C149.3 77.4 149.7 77.1 150 76.7L150.1 77.3H151V73.1C151.1 71.7 150.4 70.8 149 70.8Z"
          fill="#414142"/>
    <path d="M155 74.2H154.2C153.5 74.2 153.2 73.8 153.2 73.1C153.2 72.4 153.6 72.1 154.2 72.1H155V74.2ZM154.2 71C152.9 71 152.1 71.8 152.1 73.1C152.1 74.1 152.6 74.8 153.2 75.1L151.9 77.4H153.2L154.3 75.3H155V77.4H156.1V71H154.2Z"
          fill="#414142"/>
    <path d="M75.9 89.7H77.2L74.9 86.1L76.9 83.4H75.5L74.5 84.9L73.7 86.1V83.4H72.6V89.7H73.7V87.4L74.1 87L75.9 89.7Z"
          fill="#414142"/>
    <path d="M79.6 88.7C79 88.7 78.6 88.3 78.6 87.4V85.6C78.6 84.7 79 84.3 79.6 84.3C80.3 84.3 80.7 84.7 80.7 85.6V87.4C80.7 88.3 80.3 88.7 79.6 88.7ZM79.6 89.8C81 89.8 81.8 89 81.8 87.4V85.6C81.8 84.1 81 83.2 79.6 83.2C78.2 83.2 77.4 84 77.4 85.6V87.4C77.4 89 78.3 89.8 79.6 89.8Z"
          fill="#414142"/>
    <path d="M87.2 83.4L86.2 85.7C86 86.1 85.9 86.6 85.7 87C85.6 86.5 85.4 86.1 85.2 85.7L84.2 83.4H83V89.7H84.1V87.2C84.1 86.5 84.1 85.9 84 85.3H84.1C84.3 85.9 84.4 86.4 84.6 86.9L85.1 88.1H86.2L86.7 86.9C86.9 86.4 87 85.9 87.2 85.3H87.3C87.3 85.9 87.2 86.5 87.2 87.2V89.7H88.3V83.4H87.2Z"
          fill="#414142"/>
    <path d="M93.8 83.4H89.8V89.7H90.9V84.4H92.7V89.7H93.8V83.4Z" fill="#414142"/>
    <path d="M98.1 87.8C98.1 88.4 97.7 88.8 97.1 88.8C96.5 88.8 96.1 88.5 96.1 87.9C96.1 87.3 96.5 87 97.2 87H98.1V87.8ZM97.2 83.2C95.9 83.2 95.1 83.9 95.1 85.1H96.3C96.4 84.5 96.7 84.3 97.3 84.3C97.9 84.3 98.2 84.7 98.2 85.5V85.9H97.3C95.9 85.9 95 86.6 95 87.8C95 89 95.8 89.8 96.9 89.8C97.6 89.8 98 89.5 98.3 89.1L98.4 89.7H99.3V85.5C99.3 84 98.6 83.2 97.2 83.2Z"
          fill="#414142"/>
    <path d="M103.6 83.4V85.9H101.8V83.4H100.7V89.7H101.8V87H103.6V89.7H104.7V83.4H103.6Z" fill="#414142"/>
    <path d="M106.1 89.7H107.3L108.5 87.2C108.8 86.7 109.1 85.5 109.2 85.3C109.2 85.9 109.1 86.7 109.1 87.3V89.7H110.2V83.4H109L107.8 86C107.6 86.5 107.2 87.5 107.1 87.8C107.1 87.1 107.1 86.6 107.1 86.1V83.4H106V89.7H106.1Z"
          fill="#414142"/>
    <path d="M114.3 86.6H113.5C112.8 86.6 112.5 86.2 112.5 85.5C112.5 84.8 112.9 84.5 113.5 84.5H114.3V86.6ZM113.4 83.4C112.1 83.4 111.3 84.2 111.3 85.5C111.3 86.5 111.8 87.2 112.4 87.5L111.1 89.8H112.4L113.5 87.7H114.2V89.8H115.3V83.5H113.4V83.4Z"
          fill="#414142"/>
    <path d="M57.3 41.8V48.6C57.3 50.8 56 52.2 53.6 52.2V57.7C59.5 57.7 63 54 63 47.9V41.1C63 38.9 64.1 37.7 66.1 37.6V32C64.1 31.9 63 30.6 63 28.5V21.6C63 15.5 59.5 11.8 53.6 11.8V17.3C56 17.3 57.3 18.7 57.3 20.9V27.8C57.3 30.8 58.4 33.2 60.3 34.8C58.4 36.5 57.3 38.8 57.3 41.8Z"
          fill="#F58220"/>
</svg>
