<?xml version="1.0" encoding="UTF-8"?>
<svg xmlns="http://www.w3.org/2000/svg" xmlns:xlink="http://www.w3.org/1999/xlink" width="24pt" height="24pt"
     viewBox="0 0 24 24" version="1.1">
    <g id="surface10985299">
        <path style=" stroke:none;fill-rule:nonzero;fill:rgb(0%,0%,0%);fill-opacity:1;"
              d="M 6.800781 0.300781 C 3.210938 0.300781 0.300781 3.210938 0.300781 6.800781 L 0.300781 17.199219 C 0.300781 20.789062 3.210938 23.699219 6.800781 23.699219 L 17.199219 23.699219 C 20.789062 23.699219 23.699219 20.789062 23.699219 17.199219 L 23.699219 6.800781 C 23.699219 3.210938 20.789062 0.300781 17.199219 0.300781 Z M 19.800781 2.898438 C 20.519531 2.898438 21.101562 3.480469 21.101562 4.199219 C 21.101562 4.917969 20.519531 5.5 19.800781 5.5 C 19.082031 5.5 18.5 4.917969 18.5 4.199219 C 18.5 3.480469 19.082031 2.898438 19.800781 2.898438 Z M 12 5.5 C 15.589844 5.5 18.5 8.410156 18.5 12 C 18.5 15.589844 15.589844 18.5 12 18.5 C 8.410156 18.5 5.5 15.589844 5.5 12 C 5.5 8.410156 8.410156 5.5 12 5.5 Z M 12 8.101562 C 9.847656 8.101562 8.101562 9.847656 8.101562 12 C 8.101562 14.152344 9.847656 15.898438 12 15.898438 C 14.152344 15.898438 15.898438 14.152344 15.898438 12 C 15.898438 9.847656 14.152344 8.101562 12 8.101562 Z M 12 8.101562 "/>
    </g>
</svg>
