<?xml version="1.0" encoding="utf-8"?>
<!-- Generator: Adobe Illustrator 22.0.0, SVG Export Plug-In . SVG Version: 6.00 Build 0)  -->
<svg version="1.1" id="Layer_1" xmlns="http://www.w3.org/2000/svg" xmlns:xlink="http://www.w3.org/1999/xlink" x="0px"
     y="0px"
     viewBox="0 0 214 60.3" style="enable-background:new 0 0 214 60.3;" xml:space="preserve">
<style type="text/css">
	.st0{fill:#FFFFFF;}
	.st1{font-family:'Akrobat-Bold';}
	.st2{font-size:60.8702px;}
	.st3{fill:none;stroke:#5376BA;stroke-width:0.25;stroke-miterlimit:10;}
	.st4{fill:#FFFFFF;stroke:#5376BA;stroke-width:0.25;stroke-miterlimit:10;}
</style>
    <g>
	<text transform="matrix(1 0 0 1 0.9848 47.9439)" class="st0 st1 st2">Logotype</text>
        <rect x="2.3" y="2.4" class="st3" width="209.5" height="48.6"/>
        <rect x="0.3" y="49.1" class="st3" width="4" height="4"/>
        <rect x="0.3" y="49.1" class="st4" width="4" height="4"/>
        <rect x="0.3" y="0.4" class="st0" width="4" height="4"/>
        <rect x="0.3" y="0.4" class="st4" width="4" height="4"/>
        <g>
		<rect x="105" y="49.1" class="st4" width="4" height="4"/>
            <rect x="105" y="49.1" class="st4" width="4" height="4"/>
            <rect x="105" y="0.4" class="st4" width="4" height="4"/>
            <rect x="105" y="0.4" class="st4" width="4" height="4"/>
	</g>
        <rect x="0.3" y="24.7" class="st0" width="4" height="4"/>
        <rect x="0.3" y="24.7" class="st3" width="4" height="4"/>
        <line class="st3" x1="2.3" y1="48" x2="211.6" y2="48"/>
        <g>
		<rect x="209.7" y="49.1" class="st3" width="4" height="4"/>
            <rect x="209.7" y="49.1" class="st4" width="4" height="4"/>
            <rect x="209.7" y="0.4" class="st4" width="4" height="4"/>
            <rect x="209.7" y="24.7" class="st4" width="4" height="4"/>
	</g>
</g>
</svg>
