<?xml version="1.0" encoding="utf-8"?>
<!-- Generator: Adobe Illustrator 22.0.0, SVG Export Plug-In . SVG Version: 6.00 Build 0)  -->
<svg version="1.1" id="Layer_1" xmlns="http://www.w3.org/2000/svg" xmlns:xlink="http://www.w3.org/1999/xlink" x="0px"
     y="0px"
     viewBox="0 0 248 67" style="enable-background:new 0 0 248 67;" xml:space="preserve">
<style type="text/css">
	.st0{fill:#FFFFFF;}
	.st1{font-family:'MyriadPro-BoldIt';}
	.st2{font-size:61.6372px;}
	.st3{fill:none;stroke:#5376BA;stroke-width:0.25;stroke-miterlimit:10;}
	.st4{fill:#FFFFFF;stroke:#5376BA;stroke-width:0.25;stroke-miterlimit:10;}
</style>
    <g>
	<text transform="matrix(1 0 0 1 6.2068 51.5909)" class="st0 st1 st2">logotype</text>
        <rect x="2.1" y="6.1" class="st3" width="243.7" height="48.6"/>
        <rect x="0.2" y="52.7" class="st3" width="4" height="4"/>
        <rect x="0.2" y="52.7" class="st4" width="4" height="4"/>
        <rect x="0.2" y="4" class="st0" width="4" height="4"/>
        <rect x="0.2" y="4" class="st4" width="4" height="4"/>
        <g>
		<rect x="122" y="52.7" class="st4" width="4" height="4"/>
            <rect x="122" y="52.7" class="st4" width="4" height="4"/>
            <rect x="122" y="4" class="st4" width="4" height="4"/>
            <rect x="122" y="4" class="st4" width="4" height="4"/>
	</g>
        <rect x="0.2" y="28.4" class="st0" width="4" height="4"/>
        <rect x="0.2" y="28.4" class="st3" width="4" height="4"/>
        <line class="st3" x1="2.1" y1="51.7" x2="245.8" y2="51.7"/>
        <g>
		<rect x="243.9" y="52.7" class="st3" width="4" height="4"/>
            <rect x="243.8" y="52.7" class="st4" width="4" height="4"/>
            <rect x="243.8" y="4" class="st4" width="4" height="4"/>
            <rect x="243.8" y="28.4" class="st4" width="4" height="4"/>
	</g>
</g>
</svg>
