<?xml version="1.0" encoding="utf-8"?>
<!-- Generator: Adobe Illustrator 22.0.0, SVG Export Plug-In . SVG Version: 6.00 Build 0)  -->
<svg version="1.1" id="Layer_1" xmlns="http://www.w3.org/2000/svg" xmlns:xlink="http://www.w3.org/1999/xlink" x="0px"
     y="0px"
     viewBox="0 0 248 67" style="enable-background:new 0 0 248 67;" xml:space="preserve">
<style type="text/css">
	.st0{fill:#FFFFFF;}
	.st1{fill:none;stroke:#5376BA;stroke-width:0.25;stroke-miterlimit:10;}
	.st2{fill:#FFFFFF;stroke:#5376BA;stroke-width:0.25;stroke-miterlimit:10;}
</style>
    <g>
	<path class="st0" d="M7,51.6l8.4-43.8h8.9l-8.4,43.8H7z"/>
        <path class="st0" d="M55.1,33.2c0,11-7.5,19.1-18,19.1c-7.6,0-12.8-5-12.8-12.4c0-10.5,7.3-19,18-19C50.5,20.8,55.1,26.3,55.1,33.2
		z M33.6,39.6c0,3.5,1.7,5.9,4.8,5.9c4.9,0,7.6-7.1,7.6-12.3c0-2.8-1.2-5.7-4.7-5.7C36.1,27.5,33.5,35,33.6,39.6z"/>
        <path class="st0" d="M60.1,55.8c1.7,1,5.4,1.7,7.9,1.7c4.4,0,7.8-2,9-8l0.5-2.5h-0.1c-2.3,3-5.1,4.4-8.6,4.4c-6,0-9.6-4.9-9.7-10.7
		c0-10,7.1-19.8,20.2-19.8c4.3,0,8,0.7,11.2,2.1l-4.6,24.8c-1,5.5-2.7,10.5-6.3,13.4c-3.3,2.6-7.6,3.4-11.6,3.4
		c-4,0-7.8-0.7-9.8-1.9L60.1,55.8z M80.8,28.1c-0.7-0.3-2-0.6-3.2-0.6c-5.4,0-9.2,6-9.2,11.7c0,3,1.4,5.2,4.1,5.2
		c2.9,0,5.9-3.2,6.8-8.3L80.8,28.1z"/>
        <path class="st0" d="M124.3,33.2c0,11-7.5,19.1-18,19.1c-7.6,0-12.8-5-12.8-12.4c0-10.5,7.3-19,18-19
		C119.6,20.8,124.3,26.3,124.3,33.2z M102.7,39.6c0,3.5,1.7,5.9,4.8,5.9c4.9,0,7.6-7.1,7.6-12.3c0-2.8-1.2-5.7-4.7-5.7
		C105.3,27.5,102.7,35,102.7,39.6z"/>
        <path class="st0" d="M144,13l-1.6,8.4h6.4l-1.3,6.7h-6.4l-2,10.2c-0.2,1.2-0.5,2.8-0.5,3.8c0,1.5,0.6,2.5,2.5,2.5
		c0.8,0,1.7,0,2.5-0.1l-1,7c-1.1,0.4-3.3,0.7-5.2,0.7c-5.3,0-7.8-2.7-7.8-6.5c0-1.7,0.2-3.3,0.6-5.6l2.3-12h-3.8l1.2-6.7h3.9
		l1.2-6.3L144,13z"/>
        <path class="st0" d="M160.2,21.5l1.8,13.1c0.4,3.1,0.7,5.2,1,7.1h0.1c0.7-1.8,1.4-3.8,2.6-7l5.5-13.3h9.4l-10.8,21.6
		c-4,8-7.6,13.5-11.6,17.3c-3.5,3.3-7.7,4.8-9.7,5.1l-2-7.6c1.4-0.4,3.4-1.2,5.1-2.4c2-1.4,3.8-3.2,4.9-5.2c0.3-0.4,0.3-0.8,0.2-1.5
		l-6-27.3H160.2z"/>
        <path class="st0" d="M177.2,63.8l5.8-30.7c0.7-3.6,1.4-8.6,1.8-11.6h8l-0.6,4.4h0.1c2.5-3.3,6-5.1,9.7-5.1c6.5,0,9.7,5.2,9.7,11.4
		c0,10.5-7,20.1-17.4,20.1c-2.5,0-4.6-0.6-5.6-1.2h-0.1L186,63.8H177.2z M189.8,44.1c1,0.9,2.3,1.5,4.1,1.5c4.7,0,8.4-6.8,8.4-12.7
		c0-2.4-1-4.9-3.9-4.9c-3.3,0-6.4,3.8-7.5,9.7L189.8,44.1z"/>
        <path class="st0" d="M239.7,49.9c-3.5,1.8-7.9,2.3-11.2,2.3c-8.6,0-13.1-4.9-13.1-12.7c0-9.2,6.7-18.7,17.6-18.7
		c6.1,0,10.5,3.4,10.5,9c0,7.7-7.5,10.5-19.5,10.2c0,0.9,0.3,2.2,0.9,3.1c1.2,1.5,3.2,2.3,5.8,2.3c3.3,0,6-0.7,8.4-1.9L239.7,49.9z
		 M231.9,27.2c-4.1,0-6.5,3.4-7.1,6.2c6.9,0.1,10.4-0.9,10.4-3.6C235.2,28.3,234,27.2,231.9,27.2z"/>
</g>
    <rect x="2.1" y="6.1" class="st1" width="243.7" height="48.6"/>
    <rect x="0.2" y="52.7" class="st1" width="4" height="4"/>
    <rect x="0.2" y="52.7" class="st2" width="4" height="4"/>
    <rect x="0.2" y="4" class="st0" width="4" height="4"/>
    <rect x="0.2" y="4" class="st2" width="4" height="4"/>
    <g>
	<rect x="122" y="52.7" class="st2" width="4" height="4"/>
        <rect x="122" y="52.7" class="st2" width="4" height="4"/>
        <rect x="122" y="4" class="st2" width="4" height="4"/>
        <rect x="122" y="4" class="st2" width="4" height="4"/>
</g>
    <rect x="0.2" y="28.4" class="st0" width="4" height="4"/>
    <rect x="0.2" y="28.4" class="st1" width="4" height="4"/>
    <line class="st1" x1="2.1" y1="51.7" x2="245.8" y2="51.7"/>
    <g>
	<rect x="243.9" y="52.7" class="st1" width="4" height="4"/>
        <rect x="243.8" y="52.7" class="st2" width="4" height="4"/>
        <rect x="243.8" y="4" class="st2" width="4" height="4"/>
        <rect x="243.8" y="28.4" class="st2" width="4" height="4"/>
</g>
</svg>
